<svg width="533" height="326" viewBox="0 0 533 326" fill="none" xmlns="http://www.w3.org/2000/svg">
<path d="M310.818 249.455L322.932 286.091H323.409L335.5 249.455H344.773L328.364 296H317.955L301.568 249.455H310.818ZM350.903 296V249.455H368.358C371.934 249.455 374.934 250.121 377.358 251.455C379.797 252.788 381.638 254.621 382.881 256.955C384.138 259.273 384.767 261.909 384.767 264.864C384.767 267.848 384.138 270.5 382.881 272.818C381.623 275.136 379.767 276.962 377.312 278.295C374.858 279.614 371.835 280.273 368.244 280.273H356.676V273.341H367.108C369.199 273.341 370.911 272.977 372.244 272.25C373.578 271.523 374.563 270.523 375.199 269.25C375.85 267.977 376.176 266.515 376.176 264.864C376.176 263.212 375.85 261.758 375.199 260.5C374.563 259.242 373.57 258.265 372.222 257.568C370.888 256.856 369.169 256.5 367.062 256.5H359.335V296H350.903Z" fill="#3876D3"/>
<path d="M421.923 278.652H417.141C417.005 277.868 416.754 277.173 416.387 276.568C416.021 275.955 415.565 275.435 415.019 275.009C414.474 274.582 413.852 274.263 413.153 274.05C412.462 273.828 411.717 273.717 410.915 273.717C409.492 273.717 408.231 274.075 407.131 274.791C406.032 275.499 405.171 276.538 404.549 277.911C403.927 279.274 403.616 280.94 403.616 282.909C403.616 284.912 403.927 286.599 404.549 287.972C405.18 289.335 406.04 290.366 407.131 291.065C408.231 291.756 409.488 292.101 410.903 292.101C411.687 292.101 412.42 291.999 413.102 291.794C413.792 291.581 414.41 291.27 414.955 290.861C415.509 290.452 415.974 289.949 416.349 289.352C416.732 288.756 416.996 288.074 417.141 287.307L421.923 287.332C421.744 288.577 421.356 289.744 420.759 290.835C420.171 291.926 419.4 292.889 418.445 293.724C417.491 294.551 416.374 295.199 415.096 295.668C413.817 296.128 412.398 296.358 410.839 296.358C408.538 296.358 406.484 295.825 404.677 294.76C402.87 293.695 401.447 292.156 400.407 290.145C399.367 288.134 398.847 285.722 398.847 282.909C398.847 280.088 399.371 277.676 400.42 275.673C401.468 273.662 402.896 272.124 404.702 271.058C406.509 269.993 408.555 269.46 410.839 269.46C412.296 269.46 413.651 269.665 414.904 270.074C416.157 270.483 417.273 271.084 418.254 271.876C419.234 272.661 420.039 273.624 420.67 274.766C421.309 275.899 421.727 277.195 421.923 278.652ZM434.627 296.384C432.709 296.384 431.047 295.962 429.641 295.118C428.235 294.274 427.144 293.094 426.368 291.577C425.601 290.06 425.218 288.287 425.218 286.259C425.218 284.23 425.601 282.453 426.368 280.928C427.144 279.402 428.235 278.217 429.641 277.374C431.047 276.53 432.709 276.108 434.627 276.108C436.544 276.108 438.206 276.53 439.613 277.374C441.019 278.217 442.105 279.402 442.873 280.928C443.648 282.453 444.036 284.23 444.036 286.259C444.036 288.287 443.648 290.06 442.873 291.577C442.105 293.094 441.019 294.274 439.613 295.118C438.206 295.962 436.544 296.384 434.627 296.384ZM434.652 292.676C435.692 292.676 436.561 292.391 437.26 291.82C437.959 291.24 438.479 290.464 438.82 289.493C439.169 288.521 439.344 287.439 439.344 286.246C439.344 285.044 439.169 283.957 438.82 282.986C438.479 282.006 437.959 281.226 437.26 280.646C436.561 280.067 435.692 279.777 434.652 279.777C433.587 279.777 432.701 280.067 431.993 280.646C431.294 281.226 430.77 282.006 430.421 282.986C430.08 283.957 429.909 285.044 429.909 286.246C429.909 287.439 430.08 288.521 430.421 289.493C430.77 290.464 431.294 291.24 431.993 291.82C432.701 292.391 433.587 292.676 434.652 292.676ZM452.592 284.494V296H447.964V276.364H452.387V279.7H452.617C453.069 278.601 453.789 277.727 454.778 277.08C455.775 276.432 457.006 276.108 458.472 276.108C459.827 276.108 461.008 276.398 462.013 276.977C463.028 277.557 463.812 278.396 464.366 279.496C464.928 280.595 465.205 281.929 465.197 283.497V296H460.569V284.213C460.569 282.901 460.228 281.874 459.546 281.132C458.873 280.391 457.94 280.02 456.746 280.02C455.937 280.02 455.217 280.199 454.586 280.557C453.964 280.906 453.474 281.413 453.116 282.078C452.766 282.743 452.592 283.548 452.592 284.494ZM485.421 281.554L481.202 282.014C481.083 281.588 480.874 281.188 480.576 280.812C480.286 280.438 479.894 280.135 479.4 279.905C478.906 279.675 478.3 279.56 477.585 279.56C476.621 279.56 475.812 279.768 475.156 280.186C474.508 280.604 474.188 281.145 474.197 281.81C474.188 282.381 474.397 282.845 474.823 283.203C475.258 283.561 475.974 283.855 476.971 284.085L480.32 284.801C482.178 285.202 483.559 285.837 484.462 286.706C485.374 287.575 485.835 288.713 485.843 290.119C485.835 291.355 485.472 292.446 484.756 293.392C484.049 294.33 483.065 295.062 481.803 295.591C480.542 296.119 479.093 296.384 477.457 296.384C475.053 296.384 473.119 295.881 471.653 294.875C470.187 293.861 469.313 292.45 469.032 290.643L473.545 290.209C473.749 291.095 474.184 291.764 474.849 292.216C475.513 292.668 476.379 292.893 477.444 292.893C478.543 292.893 479.425 292.668 480.09 292.216C480.763 291.764 481.1 291.206 481.1 290.541C481.1 289.979 480.883 289.514 480.448 289.148C480.022 288.781 479.357 288.5 478.454 288.304L475.104 287.601C473.221 287.209 471.827 286.548 470.924 285.619C470.021 284.682 469.573 283.497 469.582 282.065C469.573 280.855 469.901 279.807 470.566 278.92C471.239 278.026 472.173 277.335 473.366 276.849C474.567 276.355 475.952 276.108 477.521 276.108C479.822 276.108 481.633 276.598 482.954 277.578C484.283 278.558 485.106 279.884 485.421 281.554ZM502.175 287.741V276.364H506.803V296H502.315V292.51H502.111C501.668 293.609 500.939 294.509 499.925 295.207C498.919 295.906 497.679 296.256 496.205 296.256C494.918 296.256 493.78 295.97 492.791 295.399C491.811 294.82 491.044 293.98 490.49 292.881C489.936 291.773 489.659 290.435 489.659 288.866V276.364H494.287V288.151C494.287 289.395 494.628 290.384 495.31 291.116C495.991 291.849 496.886 292.216 497.994 292.216C498.676 292.216 499.337 292.05 499.976 291.717C500.615 291.385 501.139 290.891 501.548 290.234C501.966 289.57 502.175 288.739 502.175 287.741ZM516.189 269.818V296H511.561V269.818H516.189ZM530.754 276.364V279.943H519.465V276.364H530.754ZM522.252 271.659H526.88V290.094C526.88 290.716 526.974 291.193 527.161 291.526C527.357 291.849 527.613 292.071 527.928 292.19C528.244 292.31 528.593 292.369 528.977 292.369C529.266 292.369 529.531 292.348 529.769 292.305C530.016 292.263 530.204 292.224 530.332 292.19L531.112 295.808C530.864 295.893 530.511 295.987 530.05 296.089C529.599 296.192 529.045 296.251 528.388 296.268C527.229 296.303 526.185 296.128 525.256 295.744C524.327 295.352 523.59 294.747 523.045 293.929C522.508 293.111 522.244 292.088 522.252 290.861V271.659Z" fill="#E75D10" fill-opacity="0.85"/>
<path d="M158.146 3.60863e-05C147.879 -0.00983512 137.711 2.00555 128.223 5.93082C118.736 9.85609 110.116 15.6145 102.858 22.8756C95.5989 30.1367 89.8435 38.7581 85.9213 48.2466C81.9991 57.735 79.9869 67.9038 80.0001 78.1709C79.9918 88.4349 82.0075 98.6001 85.932 108.084C89.8564 117.568 95.6127 126.185 102.871 133.443C110.129 140.7 118.747 146.455 128.232 150.378C137.717 154.3 147.882 156.314 158.146 156.304C182.172 156.331 205.206 165.887 222.195 182.876C239.184 199.865 248.74 222.899 248.766 246.925C248.761 259.264 246.226 271.471 241.318 282.792C236.41 294.113 229.233 304.308 220.23 312.746C279.19 288.373 314 224.126 314 156.304C314 66.4966 247.967 3.60863e-05 158.146 3.60863e-05ZM140.469 103.157C147.099 103.157 178.457 121.312 183.145 126C187.833 130.688 183.145 71.5287 183.145 78.1587C183.145 84.7888 180.511 91.1473 175.823 95.8355C171.135 100.524 164.776 103.157 158.146 103.157C151.516 103.157 145.158 100.524 140.469 95.8355C180.474 66.9149 185.142 114.714 185.142 108.084C336.994 163.368 135.781 65.1701 140.469 60.482C145.158 55.7938 133.839 103.157 140.469 103.157Z" fill="#3876D3"/>
<path d="M100.382 13C41.4479 37.3987 0 95.4082 0 163.205C0 253.025 72.6712 325.696 162.492 325.696C172.758 325.709 182.925 323.697 192.412 319.775C201.9 315.852 210.519 310.096 217.779 302.837C225.038 295.578 230.793 286.958 234.716 277.471C238.639 267.984 240.651 257.816 240.638 247.55C240.648 237.284 238.633 227.118 234.71 217.631C230.786 208.145 225.03 199.526 217.772 192.266C210.514 185.007 201.895 179.25 192.409 175.325C182.924 171.4 172.757 169.384 162.492 169.392C138.466 169.375 115.429 159.824 98.4408 142.835C81.4521 125.846 71.9004 102.81 71.8839 78.7841C71.8839 52.8729 82.8833 29.5366 100.382 13ZM162.492 222.527C169.122 222.527 175.48 225.16 180.168 229.849C184.856 234.537 180.168 194.37 180.168 201C180.168 207.63 167.437 193.929 180.168 217.631C162.492 199.955 151.445 201 144.815 201C138.185 201 184.856 234.537 180.168 229.849C175.48 225.16 180.168 224.262 180.168 217.631C180.168 211.001 140.127 234.537 144.815 229.849C180.168 247.55 155.861 222.527 162.492 222.527Z" fill="#E75D10" fill-opacity="0.85"/>
</svg>
